<svg width="1057" height="1164" viewBox="0 0 1057 1164" fill="none" xmlns="http://www.w3.org/2000/svg">
<g filter="url(#filter0_g_2105_1033)">
<path d="M1020.81 1035.97L1040.45 294.907C1040.6 289.357 1036.2 284.749 1030.65 284.644L189.225 268.825C183.897 268.725 179.426 272.821 179.06 278.137L143.622 793.118C143.532 794.438 143.704 795.763 144.129 797.016L261.129 1142.02C262.647 1146.49 267.092 1149.29 271.785 1148.73L591.879 1110.5C592.541 1110.42 593.209 1110.41 593.873 1110.47L883.739 1133.99C886.059 1134.18 888.372 1133.55 890.279 1132.22L1016.55 1043.9C1019.15 1042.08 1020.73 1039.14 1020.81 1035.97Z" fill="black"/>
<path d="M986.398 1001.55L1006.04 260.491C1006.19 254.94 1001.78 250.333 996.231 250.228L154.809 234.409C149.481 234.309 145.011 238.405 144.645 243.721L109.207 758.702C109.116 760.022 109.288 761.347 109.713 762.6L226.713 1107.6C228.231 1112.08 232.676 1114.88 237.369 1114.32L557.463 1076.09C558.125 1076.01 558.793 1076 559.458 1076.05L849.323 1099.57C851.643 1099.76 853.956 1099.13 855.863 1097.8L982.133 1009.48C984.732 1007.67 986.314 1004.72 986.398 1001.55Z" fill="#FFF9EF"/>
<path d="M769.132 381.304C586.144 355.629 480.065 355.489 296.979 381.342C296.974 381.346 296.969 381.35 296.963 381.356C296.96 381.358 296.957 381.361 296.955 381.363C264.632 548.569 265.384 644.692 297.005 807.165L297.023 807.183C478.081 837.942 584.769 837.278 769.188 807.152C769.193 807.148 769.199 807.144 769.205 807.138C769.207 807.136 769.208 807.132 769.209 807.13C798.033 639.995 795.823 543.836 769.154 381.324C769.152 381.322 769.151 381.32 769.149 381.318C769.143 381.312 769.137 381.308 769.132 381.304Z" fill="black"/>
<path fill-rule="evenodd" clip-rule="evenodd" d="M790.123 896.474H929.803C935.233 896.474 939.671 892.141 939.8 886.713L953.5 313.055C953.634 307.447 949.13 302.826 943.521 302.816L210.217 301.427C204.621 301.416 200.105 306 200.2 311.596L209.904 885.315C209.996 890.731 214.384 895.09 219.801 895.145L350.652 896.474H790.123ZM811.571 842.95C811.469 848.399 807.023 852.764 801.573 852.764H264.197C258.743 852.764 254.294 848.392 254.199 842.938L245.688 355.538C245.59 349.948 250.095 345.364 255.686 345.364H810.651C816.247 345.364 820.754 349.955 820.649 355.55L811.571 842.95Z" fill="#E8E3C7"/>
<path d="M390.777 936.029C392.659 933.444 395.664 931.915 398.861 931.915H736.903C739.928 931.915 742.791 933.285 744.689 935.641L834.474 1047.06C837.52 1050.84 842.841 1051.89 847.091 1049.54L848.786 1048.61C853.352 1046.09 855.216 1040.48 853.068 1035.73L790.123 896.474H350.652L288.762 1039.63C285.908 1046.23 290.749 1053.6 297.941 1053.6H300.081C303.278 1053.6 306.283 1052.07 308.165 1049.48L390.777 936.029Z" fill="#82593D"/>
<path fill-rule="evenodd" clip-rule="evenodd" d="M254.199 842.938C254.294 848.392 258.743 852.764 264.197 852.764H801.573C807.023 852.764 811.469 848.399 811.571 842.95L820.649 355.55C820.754 349.955 816.247 345.364 810.651 345.364H255.686C250.095 345.364 245.59 349.948 245.688 355.538L254.199 842.938ZM303.373 378.021C299.175 378.618 295.744 381.871 294.933 386.034C262.96 549.963 263.708 643.596 294.968 802.864C295.764 806.919 299.05 810.121 303.123 810.818C480.062 841.077 583.547 840.399 763.602 810.807C767.781 810.12 771.137 806.801 771.863 802.628C800.394 638.778 798.154 545.345 771.841 386.293C771.13 381.999 767.648 378.604 763.338 377.995C584.721 352.767 482.08 352.622 303.373 378.021Z" fill="#7D938F"/>
<circle cx="894.084" cy="549.15" r="24.8088" fill="black"/>
<circle cx="885.815" cy="400.297" r="36.6226" fill="black"/>
<path opacity="0.5" d="M836.799 339.183C853.022 339.537 865.886 352.975 865.533 369.198L855.299 838.486C855.199 843.059 854.388 847.589 852.894 851.913L848.968 863.283C844.904 875.05 836.053 884.549 824.602 889.434L818.128 892.198C814.57 893.715 810.835 894.75 807.023 895.291C807.108 895.462 807.191 895.634 807.273 895.807L865.751 1020.44C872.643 1035.13 866.322 1052.63 851.632 1059.52C836.941 1066.41 819.444 1060.09 812.551 1045.4L754.073 920.768C750.201 912.515 750.499 903.377 754.108 895.731H384.894C388.362 903.074 388.789 911.812 385.339 919.863L330.405 1048.04C324.012 1062.96 306.739 1069.87 291.824 1063.47C276.909 1057.08 269.999 1039.81 276.391 1024.89L331.326 896.714C331.468 896.382 331.618 896.055 331.77 895.731H282.724C266.497 895.731 253.342 882.576 253.342 866.349C253.342 850.121 266.497 836.966 282.724 836.966H379.764L338.366 831.034C322.302 828.732 318.198 830.063 320.5 814C322.802 797.937 363.7 822.198 379.764 824.5L442.5 836.966L557 838.486L684 821.5L769.5 796.5L781 722.5L803.709 555L773 422.5C770.812 406.421 753.421 387.688 769.5 385.5C785.579 383.312 788.893 399.936 791.081 416.015L803.709 508.808L806.782 367.919C807.136 351.695 820.575 338.829 836.799 339.183ZM938.162 308.332C954.386 308.683 967.253 322.119 966.902 338.342L955.46 867.542C954.942 891.507 935.366 910.663 911.397 910.663H885.373C869.145 910.663 855.99 897.508 855.99 881.281C855.991 865.054 869.145 851.899 885.373 851.899H897.02L908.151 337.071C908.502 320.848 921.939 307.981 938.162 308.332ZM795.663 738.91C795.604 739.649 795.517 740.387 795.402 741.119L787.544 791.29C784.533 810.516 769.269 825.492 749.989 828.136L685.576 836.966H795.886L796.599 834.9L799.83 686.699L795.663 738.91Z" fill="black"/>
<path d="M938.76 280.338C955.236 280.37 968.467 293.942 968.079 310.414L954.592 882.475C954.215 898.428 941.175 911.166 925.218 911.166H812.885L865.934 1028.53C871.53 1040.91 866.674 1055.52 854.776 1062.08C844.131 1067.95 830.838 1065.69 822.742 1056.61L735.106 958.409H400.798L319.974 1058.64C315.054 1064.74 307.639 1068.29 299.802 1068.29C281.163 1068.29 268.619 1049.2 276.015 1032.09L328.384 910.956L212.734 909.872C196.806 909.722 183.897 896.908 183.631 880.981L174.082 308.84C173.808 292.402 187.074 278.936 203.514 278.967L938.76 280.338ZM313.094 1020.36L377.925 939.964C383.503 933.047 391.912 929.026 400.798 929.026H735.106C743.479 929.026 751.453 932.598 757.028 938.845L830.23 1020.87L780.64 911.166H360.304L313.094 1020.36ZM213.009 880.491L350.789 881.783H925.218L938.704 309.721L203.46 308.349L213.009 880.491ZM805.87 330.673C822.312 330.673 835.554 344.164 835.249 360.602L826.345 838.619C826.047 854.631 812.981 867.455 796.967 867.455H268.807C252.78 867.455 239.709 854.611 239.429 838.586L231.082 360.569C230.795 344.144 244.031 330.673 260.459 330.673H805.87ZM268.807 838.073H385.301C359.631 834.812 332.689 830.741 303.835 825.842C291.836 823.805 282.263 814.495 279.93 802.52C274.706 775.7 270.348 750.691 266.864 726.856L268.807 838.073ZM799.17 719.723C796.04 745.407 791.968 772.533 786.905 801.866C784.778 814.188 775.001 823.833 762.696 825.842C732.806 830.722 704.982 834.799 678.548 838.073H796.967L799.17 719.723ZM757.883 392.063C583.811 367.658 482.901 367.525 308.737 392.099C308.732 392.102 308.727 392.107 308.721 392.112C308.719 392.114 308.716 392.117 308.714 392.119C277.966 551.055 278.681 642.424 308.762 796.861L308.779 796.879C481.014 826.116 582.503 825.485 757.936 796.849C757.941 796.845 757.946 796.841 757.952 796.836C757.954 796.834 757.955 796.83 757.956 796.828C785.375 637.959 783.273 546.556 757.903 392.082C757.902 392.08 757.901 392.078 757.899 392.076C757.893 392.071 757.888 392.067 757.883 392.063ZM740.654 360.055C747.648 360.986 754.756 361.956 761.985 362.969C774.469 364.72 784.494 374.308 786.789 386.695L786.892 387.287L788.087 394.62C794.856 436.527 799.895 474.028 803.083 509.677L805.87 360.055H740.654ZM262.787 493.454C266.66 460.476 272.345 425.419 279.876 386.498L279.993 385.924C282.568 373.911 292.439 364.726 304.607 363.009L312.846 361.857C317.31 361.239 321.729 360.641 326.103 360.055H260.459L262.787 493.454Z" fill="black"/>
</g>
<defs>
<filter id="filter0_g_2105_1033" x="103.184" y="228.408" width="943.274" height="926.398" filterUnits="userSpaceOnUse" color-interpolation-filters="sRGB">
<feFlood flood-opacity="0" result="BackgroundImageFix"/>
<feBlend mode="normal" in="SourceGraphic" in2="BackgroundImageFix" result="shape"/>
<feTurbulence type="fractalNoise" baseFrequency="0.012500000186264515 0.012500000186264515" numOctaves="3" seed="5014" />
<feDisplacementMap in="shape" scale="12" xChannelSelector="R" yChannelSelector="G" result="displacedImage" width="100%" height="100%" />
<feMerge result="effect1_texture_2105_1033">
<feMergeNode in="displacedImage"/>
</feMerge>
</filter>
</defs>
</svg>
